# xmcd
#
# Track frame offsets:
#	150
#	16284
#	33991
#	49899
#	65057
#	83168
#	101646
#	119306
#	142641
#	157558
#	176309
#	190267
#	205475
#
# Disc length: 3058 seconds
# Revision: 1
# Processed by: cddbd v1.5.2PL0 Copyright (c) Steve Scherf et al.
# Submitted via: dBpowerAMP V12.0
#
DISCID=a20bf00d
DTITLE=Lorrie Morgan - I Walk Alone
DYEAR=2008
DGENRE=Country
TTITLE0=Cleanin' Out My Closet
TTITLE1=How Does It Feel
TTITLE2=Walk Alone
TTITLE3=Very Marilyn
TTITLE4=Dangerously Blue
TTITLE5=Barely Gettin' By
TTITLE6=California Quake
TTITLE7=Mirrir, Mirror
TTITLE8=Take You Down
TTITLE9=The Wind Blows
TTITLE10=Woman Thing
TTITLE11=Ain't It Just Like Me
TTITLE12=The Next One
EXTD=
EXTT0=
EXTT1=
EXTT2=
EXTT3=
EXTT4=
EXTT5=
EXTT6=
EXTT7=
EXTT8=
EXTT9=
EXTT10=
EXTT11=
EXTT12=
PLAYORDER=
